PathFileType	4	(X/Y/Z)	Patient4_TMGait_0pt4_01_right_18.trc.trc
DataRate	CameraRate	NumFrames	NumMarkers	Units	OrigDataRate	OrigDataStartFrame	OrigNumFrames
77.777777777778	77.777777777778	6	33	mm	77.777777777778	36	       141
Frame#	Time	Sacral			L.Shoulder			Chest			R.Shoulder			Neck			R.ASIS			L.ASIS			R.Thigh.Superior			R.Thigh.Lateral			R.Thigh.Inferior			R.Patella			L.Thigh.Superior			L.Thigh.Lateral			L.Thigh.Inferior			L.Patella			L.Shank.Superior			L.Shank.Lateral			L.Shank.Inferior			R.Shank.Superior			R.Shank.Lateral			R.Shank.Inferior			R.Heel			R.Midfoot.Superior			R.Midfoot.Lateral			R.Toe			L.Heel			L.Midfoot.Lateral			L.Midfoot.Superior			L.Toe			L.Elbow			L.Wrist			R.Elbow			R.Wrist			
		X1	Y1	Z1	X2	Y2	Z2	X3	Y3	Z3	X4	Y4	Z4	X5	Y5	Z5	X6	Y6	Z6	X7	Y7	Z7	X8	Y8	Z8	X9	Y9	Z9	X10	Y10	Z10	X11	Y11	Z11	X12	Y12	Z12	X13	Y13	Z13	X14	Y14	Z14	X15	Y15	Z15	X16	Y16	Z16	X17	Y17	Z17	X18	Y18	Z18	X19	Y19	Z19	X20	Y20	Z20	X21	Y21	Z21	X22	Y22	Z22	X23	Y23	Z23	X24	Y24	Z24	X25	Y25	Z25	X26	Y26	Z26	X27	Y27	Z27	X28	Y28	Z28	X29	Y29	Z29	X30	Y30	Z30	X31	Y31	Z31	X32	Y32	Z32	X33	Y33	Z33	

36	23.760000000000	584.072098782359	1003.063506359938	419.670064377052	773.434381720471	1436.233621556926	248.794292938218	873.441570517989	1362.873963131366	409.552536573387	786.879951625964	1435.702017702653	582.792819987014	765.812659675887	1493.633138506989	406.825861479250	812.848034460080	940.731141039286	538.518287899260	799.376711057138	961.908956794210	264.494845226738	862.890763620229	743.983236978307	513.355039194218	786.172219359176	632.871913374839	573.422154015640	867.597866160810	584.259285440665	495.177474792119	871.881726808156	498.178422259072	502.615751537664	840.818123396617	743.209992109283	280.016463284250	753.045775880378	630.953274496409	210.114743195287	842.708668343182	546.723688995611	261.192550445470	838.475933886184	464.716165254749	256.756995322180	778.093190689169	404.147930493226	250.111038758110	644.311484963091	340.471857567526	206.178922796103	654.484590307342	209.410037971491	256.614521731298	848.449083867682	407.925913717815	512.774518942186	781.387092068645	302.778649396976	576.673273903075	828.846154026270	208.244039871187	516.774448315725	701.322791954783	40.942941675289	488.397974686442	872.128476232061	97.700697444641	528.589247351647	783.008388080506	36.612726199305	565.284317800430	991.048076372198	44.785666488974	558.892919972068	483.548357317386	103.840869461184	304.240783448153	541.585999605917	77.496995731420	216.626245388103	642.233762625349	110.270114242157	230.120917248493	741.425938028645	34.161080555700	187.458834773986	739.593573143405	1142.450086510233	43.272844696544	937.741377871562	987.679576525005	-40.649919863501	763.656792408588	1095.072698507544	716.546218614914	908.346367493094	878.237392411886	714.995895747892	
37	23.772857142857	583.783748312600	1003.746338092827	423.562242949603	772.317843796899	1436.832568578883	251.466071470945	873.363975617168	1363.312845962564	411.501036612962	788.132766038177	1436.195919032233	585.381011149052	765.870159419723	1494.175059997293	409.555515936371	813.018719206533	941.305073687784	540.890718520503	798.087483393231	962.380062269760	267.159690697575	860.997861054307	743.458895263516	515.584638968674	783.541444485061	632.943148527565	575.532432808605	863.982016571593	583.777981800434	496.703941020517	867.681704856322	497.861545169286	503.843065396271	843.711923569036	745.921194574539	282.410781148761	759.379363571740	632.027047690388	211.872144837108	851.000444977151	549.409881712029	263.002586541574	847.759448006912	466.496216714095	257.992690327679	786.052027730338	405.823909324327	251.196880821484	650.741838225854	345.602103600799	207.081471337804	657.579987834609	214.150707685327	256.921788748735	844.072810768175	407.784735826951	513.914551186517	776.924491412464	302.589176407486	577.506441269196	824.117139942735	208.153310819858	517.275877686078	696.291376412682	40.811007725105	488.581292286555	867.131059843559	97.677736809195	528.783923915585	778.022727233858	36.511147095664	565.457729687397	986.090141951892	44.713415060099	559.047598497876	483.640716889377	115.334120977770	304.582463546811	540.237322962598	86.225037260409	216.858173614401	642.377266336964	113.719809822631	230.081799925305	736.895003774721	33.424333679597	187.527852855426	735.305651315169	1141.122994168311	48.530921442960	930.038963368201	981.818245932083	-35.126567289564	769.202632016814	1095.407160405817	719.861522750999	916.703740274637	880.562278531228	716.895064701843	
38	23.785714285714	583.354365492306	1004.415306224234	427.291295802112	771.139263660366	1437.311001129140	253.969765828284	873.245731287898	1363.648868087165	413.269949961863	789.413714081017	1436.635081426629	587.793116581904	765.889004891277	1494.629479162488	412.118181322780	812.996468006294	941.733312654771	543.134313644536	796.705700935526	962.755404937142	269.741247433112	858.995288151656	742.920640196713	517.596572920539	780.869598146270	632.982488369851	577.586406973696	860.294875180118	583.285727807663	498.132576194718	863.410891902439	497.529878217806	505.035199648780	846.484677775571	748.751060260667	284.946018903574	765.762267058903	633.279251617801	213.663475599530	859.149465732910	552.374329994379	265.126995973097	857.008838852759	468.617649913462	259.586019413326	794.112164417755	407.736479971049	252.535496984570	657.432004393848	350.868711822869	208.157157374455	661.048749979178	219.142473685803	257.512930972655	839.640721259719	407.626837208051	515.020547237019	772.420033394377	302.380910760548	578.317645580099	819.367551194438	208.058858210099	517.746870053557	691.277720916770	40.697491875606	488.736398978301	862.161703783850	97.636343936933	528.928277839156	773.058002869574	36.407759828322	565.592267087569	981.150687702779	44.615600929791	559.133535351139	484.383947997667	127.193025811040	305.211471413379	539.410110308741	95.514942911239	217.309819042134	642.872937101101	117.552240431347	230.325001805099	732.461002784254	32.682752265842	187.635679149764	730.908309432948	1139.651686048518	53.784305655606	921.901938815195	975.551749895668	-29.527620304710	774.530468810758	1095.794557676453	723.031541362361	924.967943315411	883.081165877246	718.527517961729	
39	23.798571428571	582.790882426355	1005.043379786695	430.849076934753	769.927819961887	1437.647897882964	256.291159278095	873.093340913160	1363.861239181975	414.861680835222	790.709713906542	1437.005973829850	590.017136851768	765.888593736280	1494.984001341417	414.495413991759	812.804096651610	942.021476332737	545.276209152557	795.237749371238	963.024688982010	272.231523736643	856.985421621645	742.399381229583	519.404181681444	778.260221689948	632.996438794559	579.574444589226	856.677365708409	582.796420331151	499.483374874676	859.204964667719	497.179852819968	506.196842133551	849.069161335155	751.662126209618	287.646365372461	772.095672323296	634.712621978532	215.496123612100	867.045722798271	555.582683244684	267.549682128231	866.122783222976	471.040213512691	261.491338666583	802.158186820343	409.864401184182	254.111763336922	664.249839134381	356.205066540080	209.433094356723	664.829176625276	224.295362851460	258.403575812959	835.263282403146	407.443897983633	516.087934241861	767.953409456402	302.166397491863	579.114312293231	814.625667373977	207.952275659388	518.187880615516	686.247941959272	40.613095493027	488.866332840500	857.185551310493	97.582661857440	529.035283451609	768.073835449003	36.313859699906	565.696308207540	976.192199431638	44.494382932585	559.176486267288	485.759568617577	139.131843275325	306.151935474638	539.144554314855	105.131614640831	218.017105387554	643.730738651681	121.716074518230	230.875103721993	728.280158924273	31.989100674451	187.815905579450	726.401716383561	1138.001624666143	59.051682889080	913.307615847299	968.896691239551	-23.881497842329	779.630192715218	1096.211924435536	726.038284988769	933.146307112401	885.803696014985	719.845747750996	
40	23.811428571429	582.104046683769	1005.610273642308	434.238719669546	768.710893269756	1437.828802676720	258.418300459584	872.913517654231	1363.936278980978	416.279146205228	792.008852772744	1437.301279080059	592.042622679104	765.888817140983	1495.232597297995	416.668196166866	812.472265158930	942.184202365346	547.339138795363	793.686662095469	963.187172063468	274.620465129858	855.046481565671	741.910673869049	521.043046301808	775.783817592677	632.985837738028	581.485929936825	853.238054671279	582.317810285693	500.775965058943	855.173722588301	496.805810781057	507.328505067759	851.406220497327	754.619844702129	290.512166218938	778.280345136394	636.328595877255	217.364475512378	874.594517230941	558.997727874996	270.221274321053	875.002340723824	473.722707608097	263.633744441332	810.084024179539	412.184988627281	255.885572610047	671.072954256107	361.529487656637	210.920391741390	668.877420394880	229.498144254781	259.584822210174	831.028481251221	407.228330354568	517.111520757158	763.588284817438	301.953204899018	579.898448302902	809.917511000017	207.825565793416	518.600472593943	681.182969042823	40.560266670787	488.976430122295	852.180146177977	97.521697487298	529.117311826289	763.047285964745	36.235107161006	565.778143220858	971.193115990684	44.356273949106	559.198816215479	487.752669325845	150.800915837906	307.404352710673	539.503337913341	114.765359626880	218.999629629465	645.001093763026	126.118879853889	231.737917642012	724.594043672468	31.413988062226	188.117707884823	721.792670523756	1136.148457302992	64.347766363042	904.230969456742	961.874042891604	-18.216288633459	784.500036256622	1096.639600430071	728.859756135755	941.244236126097	888.740535334668	720.805181520531	
41	23.824285714286	581.307325151362	1006.104813339058	437.470880254024	767.509482474805	1437.846897745374	260.343568261517	872.712259322836	1363.868677714874	417.525697917797	793.301025238885	1437.519148911069	593.862442943622	765.907441701950	1495.375130253056	418.620472986338	812.032389106485	942.239258809213	549.335749268315	792.052051406904	963.250126847601	276.897723522876	853.226645844903	741.457060056717	522.559984999152	773.477390981277	632.947335161864	583.310634272656	850.047590089858	581.852030000283	502.027148401737	851.392423547264	496.401567907320	508.428098272350	853.447463974241	757.591096372891	293.516088968037	784.216574047574	638.121750094670	219.252841617805	881.715486832193	562.578851197870	273.066133847401	883.551338208789	476.624685295461	265.923067336203	817.796958947464	414.672112144492	257.800433421473	677.798468517026	366.738608270835	212.613444868135	673.178578904668	234.614810197991	261.025588254095	826.995628791112	406.973819215677	518.087140838495	759.366665760014	301.744191883209	580.667533784070	805.263680381952	207.671929437378	518.986993608150	676.076299448281	40.535613467116	489.072684658323	847.134234914567	97.456592089233	529.184436745041	757.970461870242	36.173049705316	565.844669774807	966.145655549328	44.209224821575	559.217593711371	490.363990368743	161.791454569344	308.941733668749	540.580959253097	124.038563634874	220.256236901022	646.783519736928	130.623091278712	232.900699621040	721.734748303928	31.036665598679	188.602512640880	717.096724796559	1134.081004408298	69.680664092340	894.648031736881	954.510512105207	-12.555895147157	789.145535509240	1097.060291978442	731.471006122700	949.263048853521	891.899723644121	721.366044640991	
